{"title":"Share The Story: Seeing The Unseen - Darren Embree","uid":11206517,"size":210815893,"categoryP":"video","categoryS":"other","magnet":"?xt=urn:btih:ee36df28be3ab0ac667e8b2b8898632d3f727d8c&amp;dn=Share+The+Story%3A+Seeing+The+Unseen+-+Darren+Embree&amp;tr=udp%3A%2F%2Ftracker.openbittorrent.com%3A80&amp;tr=udp%3A%2F%2Fopen.demonii.com%3A1337&amp;tr=udp%3A%2F%2Ftracker.coppersurfer.tk%3A6969&amp;tr=udp%3A%2F%2Fexodus.desync.com%3A6969","seeders":2,"leechers":0,"uploader":"davidrpeet","files":1,"time":1413225709,"description":"Share The Story: Seeing The Unseen - Darren Embree\nWeekly sermons from CrossRoads Church in Decatur, Texas\n\n\nGeneral\nFormat                                   : MPEG-4\nFormat profile                           : Base Media / Version 2\nCodec ID                                 : mp42\nFile size                                : 201 MiB\nDuration                                 : 32mn 46s\nOverall bit rate mode                    : Variable\nOverall bit rate                         : 857 Kbps\nMovie name                               : Share The Story: Seeing The Unseen\nAlbum                                    : CrossRoads Church \nAlbum/Performer                          : Darren Embree\nPerformer                                : Darren Embree\nComposer                                 : http://crossroadspeople.com/\nGenre                                    : Speech\nRecorded date                            : 2014\nEncoded date                             : UTC 2014-10-13 03:21:13\nTagged date                              : UTC 2014-10-13 03:21:13\nCover                                    : Yes\nComment                                  : CrossRoads To Go Video Podcasts\n\nVideo\nID                                       : 1\nFormat                                   : AVC\nFormat/Info                              : Advanced Video Codec\nFormat profile                           : &lt;a class=&quot;__cf_email__&quot; href=&quot;/cdn-cgi/l/email-protection&quot; data-cfemail=&quot;054d6c626d4549362b34&quot;&gt;[email&amp;#160;protected]&lt;/a&gt;&lt;script cf-hash='f9e31' type=&quot;text/javascript&quot;&gt;\n/* &lt;![CDATA[ */!function(){try{var t=&quot;currentScript&quot;in document?document.currentScript:function(){for(var t=document.getElementsByTagName(&quot;script&quot;),e=t.length;e--;)if(t[e].getAttribute(&quot;cf-hash&quot;))return t[e]}();if(t&amp;&amp;t.previousSibling){var e,r,n,i,c=t.previousSibling,a=c.getAttribute(&quot;data-cfemail&quot;);if(a){for(e=&quot;&quot;,r=parseInt(a.substr(0,2),16),n=2;a.length-n;n+=2)i=parseInt(a.substr(n,2),16)^r,e+=String.fromCharCode(i);e=document.createTextNode(e),c.parentNode.replaceChild(e,c)}}}catch(u){}}();/* ]]&gt; */&lt;/script&gt;\nFormat settings, CABAC                   : Yes\nFormat settings, ReFrames                : 4 frames\nCodec ID                                 : avc1\nCodec ID/Info                            : Advanced Video Coding\nDuration                                 : 32mn 46s\nBit rate                                 : 750 Kbps\nWidth                                    : 640 pixels\nHeight                                   : 360 pixels\nDisplay aspect ratio                     : 16:9\nFrame rate mode                          : Constant\nFrame rate                               : 29.970 fps\nColor space                              : YUV\nChroma subsampling                       : 4:2:0\nBit depth                                : 8 bits\nScan type                                : Progressive\nBits/(Pixel*Frame)                       : 0.109\nStream size                              : 176 MiB (87%)\nWriting library                          : x264 core 142 r2431 a5831aa\nEncoded date                             : UTC 2014-10-13 03:21:13\nTagged date                              : UTC 2014-10-13 03:21:13\n\nAudio\nID                                       : 2\nFormat                                   : AAC\nFormat/Info                              : Advanced Audio Codec\nFormat profile                           : LC\nCodec ID                                 : 40\nDuration                                 : 32mn 46s\nBit rate mode                            : Variable\nBit rate                                 : 103 Kbps\nChannel(s)                               : 2 channels\nChannel positions                        : Front: L R\nSampling rate                            : 48.0 KHz\nCompression mode                         : Lossy\nStream size                              : 24.1 MiB (12%)\nEncoded date                             : UTC 2014-10-13 03:21:13\nTagged date                              : UTC 2014-10-13 03:21:13","torrent":{"xt":"urn:btih:ee36df28be3ab0ac667e8b2b8898632d3f727d8c","amp;dn":"Share+The+Story%3A+Seeing+The+Unseen+-+Darren+Embree","amp;tr":["udp%3A%2F%2Ftracker.openbittorrent.com%3A80","udp%3A%2F%2Fopen.demonii.com%3A1337","udp%3A%2F%2Ftracker.coppersurfer.tk%3A6969","udp%3A%2F%2Fexodus.desync.com%3A6969"],"infoHash":"ee36df28be3ab0ac667e8b2b8898632d3f727d8c","infoHashBuffer":{"type":"Buffer","data":[238,54,223,40,190,58,176,172,102,126,139,43,136,152,99,45,63,114,125,140]},"announce":[],"urlList":[]}}